#!OML:ASF H:\Terrain\Patient Classification 1\Walking\steve\steve.ASF
:FULLY-SPECIFIED
:DEGREES
331
root 9.6027 16.3126 24.7585 14.7152 -6.49707 -3.23855
lowerback -0.0808442 5.29188 -0.703874
upperback -3.72072 7.00662 -1.88407
thorax -3.63443 3.49024 -1.75622
lowerneck -10.4863 -2.30925 -3.27357
upperneck 10.237 -3.17616 4.68103
head 4.91959 -1.3828 1.75386
rclavicle -2.94201e-014 1.19271e-014
rhumerus -42.1039 1.18899 -85.4414
rradius 33.1749
rwrist 4.15086
rhand -15.8829 -35.3407
rfingers 7.12502
rthumb 10.3131 -65.0679
lclavicle -2.94201e-014 1.19271e-014
lhumerus -35.7747 3.8433 72.7182
lradius 26.649
lwrist 5.21291
lhand -22.863 -17.2157
lfingers 7.12502
lthumb 3.57538 12.7341
rfemur -6.39759 3.81753 22.756
rtibia 52.342
rfoot 1.5699 8.59893
rtoes -16.4477
lfemur -45.0959 2.76552 -20.4668
ltibia 46.5319
lfoot -13.8863 -5.9326
ltoes 4.83835
332
root 9.60188 16.3529 24.8875 14.3705 -6.53413 -2.79428
lowerback 0.231949 5.17493 -1.35131
upperback -3.57936 6.83176 -1.84606
thorax -3.74823 3.42138 -1.38547
lowerneck -10.5701 -2.34691 -3.40386
upperneck 10.3582 -3.23152 4.8605
head 4.97847 -1.40128 1.82604
rclavicle 9.83984e-015 2.78299e-015
rhumerus -42.331 0.934943 -85.3878
rradius 32.8555
rwrist 4.22108
rhand -16.3516 -34.7927
rfingers 7.12502
rthumb 9.86093 -64.5417
lclavicle 9.83984e-015 2.78299e-015
lhumerus -34.5184 3.02273 73.6416
lradius 27.4988
lwrist 6.90437
lhand -23.4765 -17.1995
lfingers 7.12502
lthumb 2.9829 12.7593
rfemur -7.95022 3.70437 22.5681
rtibia 53.5787
rfoot -1.0653 8.40404
rtoes -20.5873
lfemur -43.8016 2.69759 -20.969
ltibia 45.7873
lfoot -14.2601 -6.00649
ltoes 4.14003
333
root 9.60302 16.3889 25.0229 14.0463 -6.52465 -2.5198
lowerback 0.573879 5.09199 -1.76383
upperback -3.53745 6.70363 -1.78361
thorax -3.95418 3.36945 -1.12639
lowerneck -10.4325 -2.54361 -4.09714
upperneck 10.4813 -3.48334 5.53839
head 5.02846 -1.50903 2.13262
rclavicle -5.397e-014 -2.10712e-014
rhumerus -42.906 0.886961 -85.5137
rradius 32.7417
rwrist 3.75156
rhand -16.7572 -34.3445
rfingers 7.12502
rthumb 9.46962 -64.1117
lclavicle -5.397e-014 -2.10712e-014
lhumerus -33.4164 1.87101 74.6081
lradius 28.2168
lwrist 8.69273
lhand -24.0427 -17.2142
lfingers 7.12502
lthumb 2.43611 12.7516
rfemur -9.33088 3.6842 22.5554
rtibia 54.5513
rfoot -2.97049 7.67462
rtoes -21.9299
lfemur -42.5274 2.70783 -21.2943
ltibia 45.0176
lfoot -14.491 -6.19322
ltoes 4.21708
334
root 9.60092 16.4183 25.1462 13.7325 -6.41504 -2.30325
lowerback 0.953943 5.00276 -2.12203
upperback -3.44608 6.56628 -1.70104
thorax -4.12469 3.31197 -0.874661
lowerneck -10.4592 -2.33533 -3.49336
upperneck 10.5188 -3.2146 4.89137
head 5.01071 -1.39479 1.8525
rclavicle 3.47873e-015 -4.77083e-015
rhumerus -43.44 0.817756 -85.5982
rradius 32.8511
rwrist 3.23468
rhand -17.0436 -34.4916
rfingers 7.12502
rthumb 9.19327 -64.2712
lclavicle 3.47873e-015 -4.77083e-015
lhumerus -32.1394 0.772748 75.5093
lradius 28.906
lwrist 10.1996
lhand -24.4642 -17.2985
lfingers 7.12502
lthumb 2.02902 12.6716
rfemur -10.7945 3.71584 22.5956
rtibia 55.6867
rfoot -4.74817 6.93668
rtoes -18.9471
lfemur -41.4076 2.69046 -21.5264
ltibia 44.317
lfoot -14.4085 -6.35663
ltoes 4.52222
335
root 9.62259 16.4665 25.3731 13.1887 -5.88775 -1.57674
lowerback -0.306616 4.72904 -2.35561
upperback -2.75053 6.24702 -1.8308
thorax -2.70294 3.15295 -0.701842
lowerneck -10.5916 -2.44571 -3.72272
upperneck 10.6472 -3.37551 5.25433
head 5.08998 -1.45592 1.98974
rclavicle 1.60022e-014 1.19271e-015
rhumerus -43.4543 0.577507 -85.6322
rradius 32.7692
rwrist 2.98042
rhand -16.89 -35.1401
rfingers 7.12502
rthumb 9.34146 -64.9132
lclavicle 1.60022e-014 1.19271e-015
lhumerus -30.4304 -0.0978401 76.197
lradius 29.3603
lwrist 11.2819
lhand -25.0206 -17.1612
lfingers 7.12502
lthumb 1.49165 12.8133
rfemur -10.9997 2.79247 21.7775
rtibia 56.4194
rfoot -7.46106 7.38048
rtoes -14.6577
lfemur -39.3918 2.32203 -22.4998
ltibia 43.6129
lfoot -15.1084 -6.90865
ltoes 3.91619
336
root 9.62214 16.483 25.4857 13.1028 -5.74776 -1.54716
lowerback 1.70358 4.65966 -2.59887
upperback -4.1821 6.04375 -1.8266
thorax -5.35505 3.06876 -0.834087
lowerneck -9.45341 -2.46078 -3.78877
upperneck 11.8963 -3.50508 5.53094
head 5.29681 -1.50944 2.08839
rclavicle 9.45718e-014 -2.38542e-014
rhumerus -46.2174 0.295774 -85.8217
rradius 32.9001
rwrist 2.81078
rhand -16.9621 -35.132
rfingers 7.12502
rthumb 9.27189 -64.9081
lclavicle 9.45718e-014 -2.38542e-014
lhumerus -31.4127 -1.75693 76.6752
lradius 30.1186
lwrist 12.2549
lhand -25.8923 -17.4519
lfingers 7.12502
lthumb 0.649777 12.5269
rfemur -12.7273 2.91075 22.0299
rtibia 57.3813
rfoot -9.67733 6.77668
rtoes -13.3237
lfemur -38.5838 2.26696 -22.5245
ltibia 43.0228
lfoot -15.4099 -7.09152
ltoes 4.16324
337
root 9.62554 16.5035 25.6174 12.8229 -5.70763 -1.47702
lowerback 0.836226 4.529 -2.65278
upperback -3.28096 5.92266 -1.70708
thorax -3.9373 3.00611 -0.539858
lowerneck -10.1713 -2.45246 -3.86489
upperneck 11.6805 -3.46285 5.60072
head 5.3522 -1.4783 2.11936
rclavicle -1.81888e-014 1.31198e-014
rhumerus -45.2443 0.257473 -85.7793
rradius 32.6802
rwrist 2.30413
rhand -17.2319 -34.3799
rfingers 7.12502
rthumb 9.01154 -64.1674
lclavicle -1.81888e-014 1.31198e-014
lhumerus -28.8381 -2.02707 77.2385
lradius 30.4862
lwrist 12.7669
lhand -26.5927 -17.7714
lfingers 7.12502
lthumb -0.0267212 12.2084
rfemur -14.1696 2.9494 22.1914
rtibia 57.9406
rfoot -11.2613 6.03192
rtoes -12.3489
lfemur -37.448 2.18471 -22.5917
ltibia 42.4057
lfoot -15.5546 -7.27258
ltoes 5.95628
338
root 9.62468 16.532 25.7744 12.3577 -5.68084 -1.36143
lowerback 0.370023 4.42047 -2.82197
upperback -2.70515 5.80835 -1.55489
thorax -3.10857 2.94854 -0.212842
lowerneck -10.6187 -2.41214 -3.81994
upperneck 11.8259 -3.387 5.44051
head 5.46604 -1.44209 2.06411
rclavicle -1.54058e-015 3.97569e-015
rhumerus -45.0161 0.212931 -85.6729
rradius 32.6152
rwrist 1.94181
rhand -16.0654 -34.9578
rfingers 7.12502
rthumb 10.137 -64.6936
lclavicle -1.54058e-015 3.97569e-015
lhumerus -27.0179 -2.35466 77.7637
lradius 30.9047
lwrist 13.1394
lhand -26.9214 -17.7001
lfingers 7.12502
lthumb -0.344201 12.2794
rfemur -15.3062 2.96285 22.3058
rtibia 58.5258
rfoot -13.2052 5.38128
rtoes -11.3859
lfemur -35.9611 2.05409 -22.6872
ltibia 41.8354
lfoot -15.6666 -7.36484
ltoes 6.66092
339
root 9.6375 16.5703 25.982 11.9607 -5.36913 -1.29028
lowerback -0.200081 4.23013 -2.73053
upperback -2.48881 5.58568 -1.42631
thorax -2.56385 2.83253 -0.0640209
lowerneck -11.2474 -2.49678 -3.7195
upperneck 12.9054 -3.49922 5.12098
head 5.90903 -1.49614 1.93355
rclavicle 1.30204e-014 -2.26615e-014
rhumerus -45.5719 0.157136 -85.6369
rradius 32.4517
rwrist 1.93419
rhand -14.9564 -36.4403
rfingers 7.12502
rthumb 11.2068 -66.121
lclavicle 1.30204e-014 -2.26615e-014
lhumerus -25.9732 -2.5847 78.1646
lradius 31.4258
lwrist 13.2009
lhand -26.8031 -17.4114
lfingers 7.12502
lthumb -0.229898 12.5682
rfemur -16.0922 2.48504 22.3267
rtibia 58.7629
rfoot -15.1309 4.91145
rtoes -12.2338
lfemur -34.1915 1.84558 -22.8693
ltibia 41.2004
lfoot -16.1722 -7.57601
ltoes 6.80049
340
root 9.63169 16.5844 26.1007 11.7717 -5.45672 -0.9375
lowerback 0.389554 4.18784 -3.33453
upperback -2.75439 5.48878 -1.38987
thorax -3.23004 2.80514 0.24274
lowerneck -10.4652 -2.34757 -3.92803
upperneck 12.9329 -3.30756 5.27444
head 5.78069 -1.41322 2.03947
rclavicle 6.47044e-014 2.10712e-014
rhumerus -46.3342 0.0596447 -85.6105
rradius 32.2681
rwrist 1.78349
rhand -14.8864 -36.9767
rfingers 7.12502
rthumb 11.2743 -66.6537
lclavicle 6.47044e-014 2.10712e-014
lhumerus -25.3432 -2.96979 78.5527
lradius 32.2314
lwrist 13.0422
lhand -26.5547 -17.27
lfingers 7.12502
lthumb 0.0100156 12.7097
rfemur -18.0419 2.7814 22.2252
rtibia 59.1949
rfoot -16.3069 3.65337
rtoes -14.4011
lfemur -33.2137 1.77692 -23.2597
ltibia 40.6284
lfoot -16.5223 -7.46076
ltoes 6.71714
341
root 9.6287 16.594 26.2321 11.4927 -5.51152 -0.789191
lowerback 0.814217 4.1816 -3.51101
upperback -2.88183 5.4522 -1.42539
thorax -3.6141 2.79494 0.262554
lowerneck -10.2509 -2.55295 -4.32185
upperneck 13.0783 -3.62093 5.84797
head 5.82231 -1.54503 2.26202
rclavicle -6.65929e-015 5.56597e-015
rhumerus -46.9254 -0.239173 -85.6449
rradius 32.0894
rwrist 1.73999
rhand -14.7941 -36.7936
rfingers 7.12502
rthumb 11.3633 -66.4657
lclavicle -6.65929e-015 5.56597e-015
lhumerus -24.5949 -3.88122 78.8607
lradius 33.0271
lwrist 13.2757
lhand -26.397 -17.2708
lfingers 7.12502
lthumb 0.162339 12.7089
rfemur -19.6587 3.14297 22.3363
rtibia 59.411
rfoot -17.5011 2.48145
rtoes -16.8633
lfemur -32.0762 1.76826 -23.4411
ltibia 40.1095
lfoot -17.0474 -7.41197
ltoes 5.71404
342
root 9.63067 16.594 26.3725 11.207 -5.44309 -1.1117
lowerback 1.1829 4.11983 -3.06939
upperback -2.95942 5.36512 -1.40159
thorax -3.85963 2.74156 0.0157404
lowerneck -10.1592 -2.55576 -3.79956
upperneck 13.3072 -3.6657 5.46999
head 5.86445 -1.56793 2.05381
rclavicle 2.35063e-014 -3.57812e-015
rhumerus -47.4753 -0.580765 -85.804
rradius 31.8747
rwrist 2.0407
rhand -15.0704 -36.3488
rfingers 7.12502
rthumb 11.0969 -66.0354
lclavicle 2.35063e-014 -3.57812e-015
lhumerus -23.6806 -4.71287 78.9713
lradius 33.6285
lwrist 13.8383
lhand -26.2148 -17.5717
lfingers 7.12502
lthumb 0.338241 12.4077
rfemur -21.006 3.43824 22.9529
rtibia 59.504
rfoot -18.8378 1.38918
rtoes -19.068
lfemur -30.9646 1.67701 -23.0843
ltibia 39.7404
lfoot -17.5619 -7.35675
ltoes 5.44355
